<svg xmlns="http://www.w3.org/2000/svg" width="512" height="136"><g transform="translate(1, 1)"><g><line stroke="black" stroke-width="1" x1="0" y1="0.0" x2="120" y2="0.0" stroke-linecap="square"/><line stroke="black" stroke-width="0.25" x1="0" y1="10.0" x2="120" y2="10.0" stroke-linecap="square"/><line stroke="black" stroke-width="0.25" x1="0" y1="20.0" x2="120" y2="20.0" stroke-linecap="square"/><line stroke="black" stroke-width="0.25" x1="0" y1="30.0" x2="120" y2="30.0" stroke-linecap="square"/><line stroke="black" stroke-width="0.25" x1="0" y1="40.0" x2="120" y2="40.0" stroke-linecap="square"/><line stroke="black" stroke-width="0.25" x1="0" y1="50.0" x2="120" y2="50.0" stroke-linecap="square"/><line stroke="black" stroke-width="0.25" x1="0" y1="60.0" x2="120" y2="60.0" stroke-linecap="square"/><line stroke="black" stroke-width="0.25" x1="0" y1="70.0" x2="120" y2="70.0" stroke-linecap="square"/><line stroke="black" stroke-width="0.25" x1="0" y1="80.0" x2="120" y2="80.0" stroke-linecap="square"/><line stroke="black" stroke-width="0.25" x1="0" y1="90.0" x2="120" y2="90.0" stroke-linecap="square"/><line stroke="black" stroke-width="0.25" x1="0" y1="100.0" x2="120" y2="100.0" stroke-linecap="square"/><line stroke="black" stroke-width="0.25" x1="0" y1="110.0" x2="120" y2="110.0" stroke-linecap="square"/><line stroke="black" stroke-width="1" x1="0" y1="120.0" x2="120" y2="120.0" stroke-linecap="square"/><line stroke="black" stroke-width="1" x1="0.0" y1="0" x2="0.0" y2="120" stroke-linecap="square"/><line stroke="black" stroke-width="0.25" x1="10.0" y1="0" x2="10.0" y2="120" stroke-linecap="square"/><line stroke="black" stroke-width="0.25" x1="20.0" y1="0" x2="20.0" y2="120" stroke-linecap="square"/><line stroke="black" stroke-width="0.25" x1="30.0" y1="0" x2="30.0" y2="120" stroke-linecap="square"/><line stroke="black" stroke-width="0.25" x1="40.0" y1="0" x2="40.0" y2="120" stroke-linecap="square"/><line stroke="black" stroke-width="0.25" x1="50.0" y1="0" x2="50.0" y2="120" stroke-linecap="square"/><line stroke="black" stroke-width="0.25" x1="60.0" y1="0" x2="60.0" y2="120" stroke-linecap="square"/><line stroke="black" stroke-width="0.25" x1="70.0" y1="0" x2="70.0" y2="120" stroke-linecap="square"/><line stroke="black" stroke-width="0.25" x1="80.0" y1="0" x2="80.0" y2="120" stroke-linecap="square"/><line stroke="black" stroke-width="0.25" x1="90.0" y1="0" x2="90.0" y2="120" stroke-linecap="square"/><line stroke="black" stroke-width="0.25" x1="100.0" y1="0" x2="100.0" y2="120" stroke-linecap="square"/><line stroke="black" stroke-width="0.25" x1="110.0" y1="0" x2="110.0" y2="120" stroke-linecap="square"/><line stroke="black" stroke-width="1" x1="120.0" y1="0" x2="120.0" y2="120" stroke-linecap="square"/></g><rect x="30.0" y="10.0" width="10.0" height="10.0" fill="black"/><rect x="40.0" y="10.0" width="10.0" height="10.0" fill="black"/><rect x="50.0" y="10.0" width="10.0" height="10.0" fill="black"/><rect x="20.0" y="20.0" width="10.0" height="10.0" fill="black"/><rect x="30.0" y="20.0" width="10.0" height="10.0" fill="black"/><rect x="40.0" y="20.0" width="10.0" height="10.0" fill="black"/><rect x="50.0" y="20.0" width="10.0" height="10.0" fill="black"/><rect x="60.0" y="20.0" width="10.0" height="10.0" fill="black"/><rect x="70.0" y="20.0" width="10.0" height="10.0" fill="black"/><rect x="10.0" y="30.0" width="10.0" height="10.0" fill="black"/><rect x="20.0" y="30.0" width="10.0" height="10.0" fill="black"/><rect x="30.0" y="30.0" width="10.0" height="10.0" fill="black"/><rect x="40.0" y="30.0" width="10.0" height="10.0" fill="black"/><rect x="50.0" y="30.0" width="10.0" height="10.0" fill="black"/><rect x="60.0" y="30.0" width="10.0" height="10.0" fill="black"/><rect x="70.0" y="30.0" width="10.0" height="10.0" fill="black"/><rect x="10.0" y="40.0" width="10.0" height="10.0" fill="black"/><rect x="20.0" y="40.0" width="10.0" height="10.0" fill="black"/><rect x="30.0" y="40.0" width="10.0" height="10.0" fill="black"/><rect x="60.0" y="40.0" width="10.0" height="10.0" fill="black"/><rect x="70.0" y="40.0" width="10.0" height="10.0" fill="black"/><rect x="80.0" y="40.0" width="10.0" height="10.0" fill="black"/><rect x="90.0" y="40.0" width="10.0" height="10.0" fill="black"/><rect x="10.0" y="50.0" width="10.0" height="10.0" fill="black"/><rect x="20.0" y="50.0" width="10.0" height="10.0" fill="black"/><rect x="30.0" y="50.0" width="10.0" height="10.0" fill="black"/><rect x="60.0" y="50.0" width="10.0" height="10.0" fill="black"/><rect x="70.0" y="50.0" width="10.0" height="10.0" fill="black"/><rect x="80.0" y="50.0" width="10.0" height="10.0" fill="black"/><rect x="90.0" y="50.0" width="10.0" height="10.0" fill="black"/><rect x="20.0" y="60.0" width="10.0" height="10.0" fill="black"/><rect x="30.0" y="60.0" width="10.0" height="10.0" fill="black"/><rect x="40.0" y="60.0" width="10.0" height="10.0" fill="black"/><rect x="50.0" y="60.0" width="10.0" height="10.0" fill="black"/><rect x="80.0" y="60.0" width="10.0" height="10.0" fill="black"/><rect x="90.0" y="60.0" width="10.0" height="10.0" fill="black"/><rect x="100.0" y="60.0" width="10.0" height="10.0" fill="black"/><rect x="20.0" y="70.0" width="10.0" height="10.0" fill="black"/><rect x="30.0" y="70.0" width="10.0" height="10.0" fill="black"/><rect x="40.0" y="70.0" width="10.0" height="10.0" fill="black"/><rect x="50.0" y="70.0" width="10.0" height="10.0" fill="black"/><rect x="80.0" y="70.0" width="10.0" height="10.0" fill="black"/><rect x="90.0" y="70.0" width="10.0" height="10.0" fill="black"/><rect x="100.0" y="70.0" width="10.0" height="10.0" fill="black"/><rect x="40.0" y="80.0" width="10.0" height="10.0" fill="black"/><rect x="50.0" y="80.0" width="10.0" height="10.0" fill="black"/><rect x="60.0" y="80.0" width="10.0" height="10.0" fill="black"/><rect x="70.0" y="80.0" width="10.0" height="10.0" fill="black"/><rect x="80.0" y="80.0" width="10.0" height="10.0" fill="black"/><rect x="90.0" y="80.0" width="10.0" height="10.0" fill="black"/><rect x="100.0" y="80.0" width="10.0" height="10.0" fill="black"/><rect x="40.0" y="90.0" width="10.0" height="10.0" fill="black"/><rect x="50.0" y="90.0" width="10.0" height="10.0" fill="black"/><rect x="60.0" y="90.0" width="10.0" height="10.0" fill="black"/><rect x="70.0" y="90.0" width="10.0" height="10.0" fill="black"/><rect x="80.0" y="90.0" width="10.0" height="10.0" fill="black"/><rect x="90.0" y="90.0" width="10.0" height="10.0" fill="black"/><rect x="60.0" y="100.0" width="10.0" height="10.0" fill="black"/><rect x="70.0" y="100.0" width="10.0" height="10.0" fill="black"/><rect x="80.0" y="100.0" width="10.0" height="10.0" fill="black"/></g><g transform="translate(161, 1)"><rect x="30.0" y="0.0" width="10.0" height="10.0" fill="#BDC8F5"/><rect x="40.0" y="0.0" width="10.0" height="10.0" fill="#BDC8F5"/><rect x="50.0" y="0.0" width="10.0" height="10.0" fill="#BDC8F5"/><rect x="60.0" y="0.0" width="10.0" height="10.0" fill="#BDC8F5"/><rect x="20.0" y="10.0" width="10.0" height="10.0" fill="#BDC8F5"/><rect x="30.0" y="10.0" width="10.0" height="10.0" fill="#4565E3"/><rect x="40.0" y="10.0" width="10.0" height="10.0" fill="#4565E3"/><rect x="50.0" y="10.0" width="10.0" height="10.0" fill="#4565E3"/><rect x="60.0" y="10.0" width="10.0" height="10.0" fill="#BDC8F5"/><rect x="70.0" y="10.0" width="10.0" height="10.0" fill="#BDC8F5"/><rect x="80.0" y="10.0" width="10.0" height="10.0" fill="#BDC8F5"/><rect x="10.0" y="20.0" width="10.0" height="10.0" fill="#BDC8F5"/><rect x="20.0" y="20.0" width="10.0" height="10.0" fill="#4565E3"/><rect x="30.0" y="20.0" width="10.0" height="10.0" fill="#4565E3"/><rect x="40.0" y="20.0" width="10.0" height="10.0" fill="#4565E3"/><rect x="50.0" y="20.0" width="10.0" height="10.0" fill="#4565E3"/><rect x="60.0" y="20.0" width="10.0" height="10.0" fill="#4565E3"/><rect x="70.0" y="20.0" width="10.0" height="10.0" fill="#4565E3"/><rect x="80.0" y="20.0" width="10.0" height="10.0" fill="#BDC8F5"/><rect x="10.0" y="30.0" width="10.0" height="10.0" fill="#4565E3"/><rect x="20.0" y="30.0" width="10.0" height="10.0" fill="#4565E3"/><rect x="30.0" y="30.0" width="10.0" height="10.0" fill="#4565E3"/><rect x="40.0" y="30.0" width="10.0" height="10.0" fill="#4565E3"/><rect x="50.0" y="30.0" width="10.0" height="10.0" fill="#4565E3"/><rect x="60.0" y="30.0" width="10.0" height="10.0" fill="#4565E3"/><rect x="70.0" y="30.0" width="10.0" height="10.0" fill="#4565E3"/><rect x="80.0" y="30.0" width="10.0" height="10.0" fill="#BDC8F5"/><rect x="90.0" y="30.0" width="10.0" height="10.0" fill="#BDC8F5"/><rect x="100.0" y="30.0" width="10.0" height="10.0" fill="#BDC8F5"/><rect x="10.0" y="40.0" width="10.0" height="10.0" fill="#4565E3"/><rect x="20.0" y="40.0" width="10.0" height="10.0" fill="#4565E3"/><rect x="30.0" y="40.0" width="10.0" height="10.0" fill="#4565E3"/><rect x="40.0" y="40.0" width="10.0" height="10.0" fill="#BDC8F5"/><rect x="60.0" y="40.0" width="10.0" height="10.0" fill="#4565E3"/><rect x="70.0" y="40.0" width="10.0" height="10.0" fill="#4565E3"/><rect x="80.0" y="40.0" width="10.0" height="10.0" fill="#4565E3"/><rect x="90.0" y="40.0" width="10.0" height="10.0" fill="#4565E3"/><rect x="100.0" y="40.0" width="10.0" height="10.0" fill="#BDC8F5"/><rect x="10.0" y="50.0" width="10.0" height="10.0" fill="#4565E3"/><rect x="20.0" y="50.0" width="10.0" height="10.0" fill="#4565E3"/><rect x="30.0" y="50.0" width="10.0" height="10.0" fill="#4565E3"/><rect x="40.0" y="50.0" width="10.0" height="10.0" fill="#BDC8F5"/><rect x="50.0" y="50.0" width="10.0" height="10.0" fill="#BDC8F5"/><rect x="60.0" y="50.0" width="10.0" height="10.0" fill="#4565E3"/><rect x="70.0" y="50.0" width="10.0" height="10.0" fill="#4565E3"/><rect x="80.0" y="50.0" width="10.0" height="10.0" fill="#4565E3"/><rect x="90.0" y="50.0" width="10.0" height="10.0" fill="#4565E3"/><rect x="100.0" y="50.0" width="10.0" height="10.0" fill="#BDC8F5"/><rect x="110.0" y="50.0" width="10.0" height="10.0" fill="#BDC8F5"/><rect x="20.0" y="60.0" width="10.0" height="10.0" fill="#4565E3"/><rect x="30.0" y="60.0" width="10.0" height="10.0" fill="#4565E3"/><rect x="40.0" y="60.0" width="10.0" height="10.0" fill="#4565E3"/><rect x="50.0" y="60.0" width="10.0" height="10.0" fill="#4565E3"/><rect x="60.0" y="60.0" width="10.0" height="10.0" fill="#BDC8F5"/><rect x="80.0" y="60.0" width="10.0" height="10.0" fill="#4565E3"/><rect x="90.0" y="60.0" width="10.0" height="10.0" fill="#4565E3"/><rect x="100.0" y="60.0" width="10.0" height="10.0" fill="#4565E3"/><rect x="110.0" y="60.0" width="10.0" height="10.0" fill="#BDC8F5"/><rect x="20.0" y="70.0" width="10.0" height="10.0" fill="#4565E3"/><rect x="30.0" y="70.0" width="10.0" height="10.0" fill="#4565E3"/><rect x="40.0" y="70.0" width="10.0" height="10.0" fill="#4565E3"/><rect x="50.0" y="70.0" width="10.0" height="10.0" fill="#4565E3"/><rect x="60.0" y="70.0" width="10.0" height="10.0" fill="#BDC8F5"/><rect x="70.0" y="70.0" width="10.0" height="10.0" fill="#BDC8F5"/><rect x="80.0" y="70.0" width="10.0" height="10.0" fill="#4565E3"/><rect x="90.0" y="70.0" width="10.0" height="10.0" fill="#4565E3"/><rect x="100.0" y="70.0" width="10.0" height="10.0" fill="#4565E3"/><rect x="110.0" y="70.0" width="10.0" height="10.0" fill="#BDC8F5"/><rect x="40.0" y="80.0" width="10.0" height="10.0" fill="#4565E3"/><rect x="50.0" y="80.0" width="10.0" height="10.0" fill="#4565E3"/><rect x="60.0" y="80.0" width="10.0" height="10.0" fill="#4565E3"/><rect x="70.0" y="80.0" width="10.0" height="10.0" fill="#4565E3"/><rect x="80.0" y="80.0" width="10.0" height="10.0" fill="#4565E3"/><rect x="90.0" y="80.0" width="10.0" height="10.0" fill="#4565E3"/><rect x="100.0" y="80.0" width="10.0" height="10.0" fill="#4565E3"/><rect x="110.0" y="80.0" width="10.0" height="10.0" fill="#BDC8F5"/><rect x="40.0" y="90.0" width="10.0" height="10.0" fill="#4565E3"/><rect x="50.0" y="90.0" width="10.0" height="10.0" fill="#4565E3"/><rect x="60.0" y="90.0" width="10.0" height="10.0" fill="#4565E3"/><rect x="70.0" y="90.0" width="10.0" height="10.0" fill="#4565E3"/><rect x="80.0" y="90.0" width="10.0" height="10.0" fill="#4565E3"/><rect x="90.0" y="90.0" width="10.0" height="10.0" fill="#4565E3"/><rect x="100.0" y="90.0" width="10.0" height="10.0" fill="#BDC8F5"/><rect x="60.0" y="100.0" width="10.0" height="10.0" fill="#4565E3"/><rect x="70.0" y="100.0" width="10.0" height="10.0" fill="#4565E3"/><rect x="80.0" y="100.0" width="10.0" height="10.0" fill="#4565E3"/><rect x="90.0" y="100.0" width="10.0" height="10.0" fill="#BDC8F5"/><circle cx="30.0" cy="10.0" r="2" fill="black"/><circle cx="40.0" cy="10.0" r="2" fill="black"/><circle cx="50.0" cy="10.0" r="2" fill="black"/><circle cx="60.0" cy="10.0" r="2" fill="black"/><circle cx="20.0" cy="20.0" r="2" fill="black"/><circle cx="30.0" cy="20.0" r="2" fill="black"/><circle cx="40.0" cy="20.0" r="2" fill="black"/><circle cx="50.0" cy="20.0" r="2" fill="black"/><circle cx="60.0" cy="20.0" r="2" fill="black"/><circle cx="70.0" cy="20.0" r="2" fill="black"/><circle cx="80.0" cy="20.0" r="2" fill="black"/><circle cx="10.0" cy="30.0" r="2" fill="black"/><circle cx="20.0" cy="30.0" r="2" fill="black"/><circle cx="30.0" cy="30.0" r="2" fill="black"/><circle cx="40.0" cy="30.0" r="2" fill="black"/><circle cx="50.0" cy="30.0" r="2" fill="black"/><circle cx="60.0" cy="30.0" r="2" fill="black"/><circle cx="70.0" cy="30.0" r="2" fill="black"/><circle cx="80.0" cy="30.0" r="2" fill="black"/><circle cx="10.0" cy="40.0" r="2" fill="black"/><circle cx="20.0" cy="40.0" r="2" fill="black"/><circle cx="30.0" cy="40.0" r="2" fill="black"/><circle cx="40.0" cy="40.0" r="2" fill="black"/><circle cx="50.0" cy="40.0" r="2" fill="black"/><circle cx="60.0" cy="40.0" r="2" fill="black"/><circle cx="70.0" cy="40.0" r="2" fill="black"/><circle cx="80.0" cy="40.0" r="2" fill="black"/><circle cx="90.0" cy="40.0" r="2" fill="black"/><circle cx="100.0" cy="40.0" r="2" fill="black"/><circle cx="10.0" cy="50.0" r="2" fill="black"/><circle cx="20.0" cy="50.0" r="2" fill="black"/><circle cx="30.0" cy="50.0" r="2" fill="black"/><circle cx="40.0" cy="50.0" r="2" fill="black"/><circle cx="60.0" cy="50.0" r="2" fill="black"/><circle cx="70.0" cy="50.0" r="2" fill="black"/><circle cx="80.0" cy="50.0" r="2" fill="black"/><circle cx="90.0" cy="50.0" r="2" fill="black"/><circle cx="100.0" cy="50.0" r="2" fill="black"/><circle cx="10.0" cy="60.0" r="2" fill="black"/><circle cx="20.0" cy="60.0" r="2" fill="black"/><circle cx="30.0" cy="60.0" r="2" fill="black"/><circle cx="40.0" cy="60.0" r="2" fill="black"/><circle cx="50.0" cy="60.0" r="2" fill="black"/><circle cx="60.0" cy="60.0" r="2" fill="black"/><circle cx="70.0" cy="60.0" r="2" fill="black"/><circle cx="80.0" cy="60.0" r="2" fill="black"/><circle cx="90.0" cy="60.0" r="2" fill="black"/><circle cx="100.0" cy="60.0" r="2" fill="black"/><circle cx="110.0" cy="60.0" r="2" fill="black"/><circle cx="20.0" cy="70.0" r="2" fill="black"/><circle cx="30.0" cy="70.0" r="2" fill="black"/><circle cx="40.0" cy="70.0" r="2" fill="black"/><circle cx="50.0" cy="70.0" r="2" fill="black"/><circle cx="60.0" cy="70.0" r="2" fill="black"/><circle cx="80.0" cy="70.0" r="2" fill="black"/><circle cx="90.0" cy="70.0" r="2" fill="black"/><circle cx="100.0" cy="70.0" r="2" fill="black"/><circle cx="110.0" cy="70.0" r="2" fill="black"/><circle cx="20.0" cy="80.0" r="2" fill="black"/><circle cx="30.0" cy="80.0" r="2" fill="black"/><circle cx="40.0" cy="80.0" r="2" fill="black"/><circle cx="50.0" cy="80.0" r="2" fill="black"/><circle cx="60.0" cy="80.0" r="2" fill="black"/><circle cx="70.0" cy="80.0" r="2" fill="black"/><circle cx="80.0" cy="80.0" r="2" fill="black"/><circle cx="90.0" cy="80.0" r="2" fill="black"/><circle cx="100.0" cy="80.0" r="2" fill="black"/><circle cx="110.0" cy="80.0" r="2" fill="black"/><circle cx="40.0" cy="90.0" r="2" fill="black"/><circle cx="50.0" cy="90.0" r="2" fill="black"/><circle cx="60.0" cy="90.0" r="2" fill="black"/><circle cx="70.0" cy="90.0" r="2" fill="black"/><circle cx="80.0" cy="90.0" r="2" fill="black"/><circle cx="90.0" cy="90.0" r="2" fill="black"/><circle cx="100.0" cy="90.0" r="2" fill="black"/><circle cx="110.0" cy="90.0" r="2" fill="black"/><circle cx="40.0" cy="100.0" r="2" fill="black"/><circle cx="50.0" cy="100.0" r="2" fill="black"/><circle cx="60.0" cy="100.0" r="2" fill="black"/><circle cx="70.0" cy="100.0" r="2" fill="black"/><circle cx="80.0" cy="100.0" r="2" fill="black"/><circle cx="90.0" cy="100.0" r="2" fill="black"/><circle cx="100.0" cy="100.0" r="2" fill="black"/><circle cx="60.0" cy="110.0" r="2" fill="black"/><circle cx="70.0" cy="110.0" r="2" fill="black"/><circle cx="80.0" cy="110.0" r="2" fill="black"/><circle cx="90.0" cy="110.0" r="2" fill="black"/><g><line stroke="black" stroke-width="1" x1="0" y1="0.0" x2="120" y2="0.0" stroke-linecap="square"/><line stroke="black" stroke-width="0.25" x1="0" y1="10.0" x2="120" y2="10.0" stroke-linecap="square"/><line stroke="black" stroke-width="0.25" x1="0" y1="20.0" x2="120" y2="20.0" stroke-linecap="square"/><line stroke="black" stroke-width="0.25" x1="0" y1="30.0" x2="120" y2="30.0" stroke-linecap="square"/><line stroke="black" stroke-width="0.25" x1="0" y1="40.0" x2="120" y2="40.0" stroke-linecap="square"/><line stroke="black" stroke-width="0.25" x1="0" y1="50.0" x2="120" y2="50.0" stroke-linecap="square"/><line stroke="black" stroke-width="0.25" x1="0" y1="60.0" x2="120" y2="60.0" stroke-linecap="square"/><line stroke="black" stroke-width="0.25" x1="0" y1="70.0" x2="120" y2="70.0" stroke-linecap="square"/><line stroke="black" stroke-width="0.25" x1="0" y1="80.0" x2="120" y2="80.0" stroke-linecap="square"/><line stroke="black" stroke-width="0.25" x1="0" y1="90.0" x2="120" y2="90.0" stroke-linecap="square"/><line stroke="black" stroke-width="0.25" x1="0" y1="100.0" x2="120" y2="100.0" stroke-linecap="square"/><line stroke="black" stroke-width="0.25" x1="0" y1="110.0" x2="120" y2="110.0" stroke-linecap="square"/><line stroke="black" stroke-width="1" x1="0" y1="120.0" x2="120" y2="120.0" stroke-linecap="square"/><line stroke="black" stroke-width="1" x1="0.0" y1="0" x2="0.0" y2="120" stroke-linecap="square"/><line stroke="black" stroke-width="0.25" x1="10.0" y1="0" x2="10.0" y2="120" stroke-linecap="square"/><line stroke="black" stroke-width="0.25" x1="20.0" y1="0" x2="20.0" y2="120" stroke-linecap="square"/><line stroke="black" stroke-width="0.25" x1="30.0" y1="0" x2="30.0" y2="120" stroke-linecap="square"/><line stroke="black" stroke-width="0.25" x1="40.0" y1="0" x2="40.0" y2="120" stroke-linecap="square"/><line stroke="black" stroke-width="0.25" x1="50.0" y1="0" x2="50.0" y2="120" stroke-linecap="square"/><line stroke="black" stroke-width="0.25" x1="60.0" y1="0" x2="60.0" y2="120" stroke-linecap="square"/><line stroke="black" stroke-width="0.25" x1="70.0" y1="0" x2="70.0" y2="120" stroke-linecap="square"/><line stroke="black" stroke-width="0.25" x1="80.0" y1="0" x2="80.0" y2="120" stroke-linecap="square"/><line stroke="black" stroke-width="0.25" x1="90.0" y1="0" x2="90.0" y2="120" stroke-linecap="square"/><line stroke="black" stroke-width="0.25" x1="100.0" y1="0" x2="100.0" y2="120" stroke-linecap="square"/><line stroke="black" stroke-width="0.25" x1="110.0" y1="0" x2="110.0" y2="120" stroke-linecap="square"/><line stroke="black" stroke-width="1" x1="120.0" y1="0" x2="120.0" y2="120" stroke-linecap="square"/></g></g><g transform="translate(391, 1)"><g><line stroke="black" stroke-width="1" x1="0" y1="0.0" x2="120" y2="0.0" stroke-linecap="square"/><line stroke="black" stroke-width="0.25" x1="0" y1="10.0" x2="120" y2="10.0" stroke-linecap="square"/><line stroke="black" stroke-width="0.25" x1="0" y1="20.0" x2="120" y2="20.0" stroke-linecap="square"/><line stroke="black" stroke-width="0.25" x1="0" y1="30.0" x2="120" y2="30.0" stroke-linecap="square"/><line stroke="black" stroke-width="0.25" x1="0" y1="40.0" x2="120" y2="40.0" stroke-linecap="square"/><line stroke="black" stroke-width="0.25" x1="0" y1="50.0" x2="120" y2="50.0" stroke-linecap="square"/><line stroke="black" stroke-width="0.25" x1="0" y1="60.0" x2="120" y2="60.0" stroke-linecap="square"/><line stroke="black" stroke-width="0.25" x1="0" y1="70.0" x2="120" y2="70.0" stroke-linecap="square"/><line stroke="black" stroke-width="0.25" x1="0" y1="80.0" x2="120" y2="80.0" stroke-linecap="square"/><line stroke="black" stroke-width="0.25" x1="0" y1="90.0" x2="120" y2="90.0" stroke-linecap="square"/><line stroke="black" stroke-width="0.25" x1="0" y1="100.0" x2="120" y2="100.0" stroke-linecap="square"/><line stroke="black" stroke-width="0.25" x1="0" y1="110.0" x2="120" y2="110.0" stroke-linecap="square"/><line stroke="black" stroke-width="1" x1="0" y1="120.0" x2="120" y2="120.0" stroke-linecap="square"/><line stroke="black" stroke-width="1" x1="0.0" y1="0" x2="0.0" y2="120" stroke-linecap="square"/><line stroke="black" stroke-width="0.25" x1="10.0" y1="0" x2="10.0" y2="120" stroke-linecap="square"/><line stroke="black" stroke-width="0.25" x1="20.0" y1="0" x2="20.0" y2="120" stroke-linecap="square"/><line stroke="black" stroke-width="0.25" x1="30.0" y1="0" x2="30.0" y2="120" stroke-linecap="square"/><line stroke="black" stroke-width="0.25" x1="40.0" y1="0" x2="40.0" y2="120" stroke-linecap="square"/><line stroke="black" stroke-width="0.25" x1="50.0" y1="0" x2="50.0" y2="120" stroke-linecap="square"/><line stroke="black" stroke-width="0.25" x1="60.0" y1="0" x2="60.0" y2="120" stroke-linecap="square"/><line stroke="black" stroke-width="0.25" x1="70.0" y1="0" x2="70.0" y2="120" stroke-linecap="square"/><line stroke="black" stroke-width="0.25" x1="80.0" y1="0" x2="80.0" y2="120" stroke-linecap="square"/><line stroke="black" stroke-width="0.25" x1="90.0" y1="0" x2="90.0" y2="120" stroke-linecap="square"/><line stroke="black" stroke-width="0.25" x1="100.0" y1="0" x2="100.0" y2="120" stroke-linecap="square"/><line stroke="black" stroke-width="0.25" x1="110.0" y1="0" x2="110.0" y2="120" stroke-linecap="square"/><line stroke="black" stroke-width="1" x1="120.0" y1="0" x2="120.0" y2="120" stroke-linecap="square"/></g><path stroke="black" stroke-width="1.0" d="M 100.0 82.11118994122077 L 95.8029358156817 90.0 L 90.0 95.8029358156817 L 82.11118994122077 100.0 L 80.0 100.90559493280767 L 70.0 101.93228322983859 L 61.93620202666635 100.0 L 60.0 99.47553419186376 L 50.0 92.19200988104956 L 48.10047711584667 90.0 L 43.117178863173244 80.0 L 40.0 76.88282055471781 L 30.0 71.89952370362333 L 27.80799011895045 70.0 L 20.524465808136256 60.0 L 20.0 58.06379797333365 L 18.067716077825494 50.0 L 19.094404733740884 40.0 L 20.0 37.88881005877922 L 24.197064184318293 30.0 L 30.0 24.197064184318293 L 37.88881005877922 20.0 L 40.0 19.094404733740884 L 50.0 18.067716077825494 L 58.06379797333365 20.0 L 60.0 20.524465808136256 L 70.0 27.80799011895045 L 71.89952370362333 30.0 L 76.88282055471781 40.0 L 80.0 43.117178863173244 L 90.0 48.10047711584667 L 92.19200988104956 50.0 L 99.47553419186376 60.0 L 100.0 61.93620202666635 L 101.93228322983859 70.0 L 100.90559493280767 80.0 L 100.0 82.11118994122077 Z" fill="#4565E3"/><path stroke="black" stroke-width="1.0" d="M 90.0 87.47167239098437 L 87.47167239098437 90.0 L 80.0 94.56586297664953 L 70.0 95.91254450121923 L 60.0 92.68035082411346 L 56.51548634706708 90.0 L 50.0 81.17745806862382 L 49.38320731969667 80.0 L 40.0 70.61679092806222 L 38.82254507653511 70.0 L 30.0 63.484513652932904 L 27.319649175886546 60.0 L 24.087455498780777 50.0 L 25.434138054580565 40.0 L 30.0 32.52832839416691 L 32.52832839416691 30.0 L 40.0 25.434138054580565 L 50.0 24.087455498780777 L 60.0 27.319649175886546 L 63.484513652932904 30.0 L 70.0 38.82254507653511 L 70.61679092806222 40.0 L 80.0 49.38320731969667 L 81.17745806862382 50.0 L 90.0 56.51548634706708 L 92.68035082411346 60.0 L 95.91254450121923 70.0 L 94.56586297664953 80.0 L 90.0 87.47167239098437 Z" fill="#718AEA"/><path stroke="black" stroke-width="1.0" d="M 80.0 87.97505843596262 L 70.0 89.88770894874149 L 60.0 84.96151018816599 L 56.01900377467058 80.0 L 54.12155109807622 70.0 L 50.0 65.87844890192378 L 40.0 63.980994235676214 L 35.03849106122969 60.0 L 30.112291091968295 50.0 L 32.02494434465323 40.0 L 40.0 32.02494434465323 L 50.0 30.112291091968295 L 60.0 35.03849106122969 L 63.980994235676214 40.0 L 65.87844890192378 50.0 L 70.0 54.12155109807622 L 80.0 56.01900377467058 L 84.96151018816599 60.0 L 89.88770894874149 70.0 L 87.97505843596262 80.0 L 80.0 87.97505843596262 Z" fill="#9DAEF0"/></g><g><line stroke="black" stroke-width="1" x1="126" y1="61.0" x2="156" y2="61.0" stroke-linecap="round"/><line stroke="black" stroke-width="1" x1="156" y1="61.0" x2="153.0" y2="58.0" stroke-linecap="round"/><line stroke="black" stroke-width="1" x1="156" y1="61.0" x2="153.0" y2="64.0" stroke-linecap="round"/></g><g><line stroke="black" stroke-width="1" x1="286" y1="102" x2="386" y2="102" stroke-linecap="round"/><line stroke="black" stroke-width="1" x1="386" y1="102" x2="383.0" y2="99.0" stroke-linecap="round"/><line stroke="black" stroke-width="1" x1="386" y1="102" x2="383.0" y2="105.0" stroke-linecap="round"/></g><g transform="translate(141.0, 61.0) rotate(-90.0)"><rect stroke="black" stroke-width="1.0" x="-37.5" y="-8.0" width="75.0" height="16" fill="white"/><text text-anchor="middle" font-size="9" fill="black" x="0" y="3.0">Voxel Extraction</text></g><g transform="translate(336.0, 102) rotate(0.0)"><rect stroke="black" stroke-width="1.0" x="-37.5" y="-8.0" width="75.0" height="16" fill="white"/><text text-anchor="middle" font-size="9" fill="black" x="0" y="3.0">Marching Cubes</text></g><g transform="translate(336.0, 17) rotate(0.0)"><text text-anchor="middle" font-size="9" fill="black" x="0" y="3.0">Explicit Parameters</text></g><g><rect stroke="black" stroke-width="0.25" x="332.0" y="26.0" width="4" height="4" fill="#4565E3"/><rect stroke="black" stroke-width="0.25" x="336.0" y="26.0" width="4" height="4" fill="#9DAEF0"/><rect stroke="black" stroke-width="0.25" x="340.0" y="26.0" width="4" height="4" fill="#4565E3"/><rect stroke="black" stroke-width="0.25" x="344.0" y="26.0" width="4" height="4" fill="#718AEA"/><rect stroke="black" stroke-width="0.25" x="332.0" y="30.0" width="4" height="4" fill="#4565E3"/><rect stroke="black" stroke-width="0.25" x="336.0" y="30.0" width="4" height="4" fill="#718AEA"/><rect stroke="black" stroke-width="0.25" x="340.0" y="30.0" width="4" height="4" fill="#718AEA"/><rect stroke="black" stroke-width="0.25" x="344.0" y="30.0" width="4" height="4" fill="#718AEA"/><rect stroke="black" stroke-width="0.25" x="332.0" y="34.0" width="4" height="4" fill="#9DAEF0"/><rect stroke="black" stroke-width="0.25" x="336.0" y="34.0" width="4" height="4" fill="#718AEA"/><rect stroke="black" stroke-width="0.25" x="340.0" y="34.0" width="4" height="4" fill="#4565E3"/><rect stroke="black" stroke-width="0.25" x="344.0" y="34.0" width="4" height="4" fill="#4565E3"/><rect stroke="black" stroke-width="0.25" x="332.0" y="38.0" width="4" height="4" fill="#718AEA"/><rect stroke="black" stroke-width="0.25" x="336.0" y="38.0" width="4" height="4" fill="#4565E3"/><rect stroke="black" stroke-width="0.25" x="340.0" y="38.0" width="4" height="4" fill="#718AEA"/><rect stroke="black" stroke-width="0.25" x="344.0" y="38.0" width="4" height="4" fill="#718AEA"/><rect stroke="black" stroke-width="0.25" x="332.0" y="42.0" width="4" height="4" fill="#9DAEF0"/><rect stroke="black" stroke-width="0.25" x="336.0" y="42.0" width="4" height="4" fill="#4565E3"/><rect stroke="black" stroke-width="0.25" x="340.0" y="42.0" width="4" height="4" fill="#9DAEF0"/><rect stroke="black" stroke-width="0.25" x="344.0" y="42.0" width="4" height="4" fill="#718AEA"/><rect stroke="black" stroke-width="0.25" x="332.0" y="46.0" width="4" height="4" fill="#718AEA"/><rect stroke="black" stroke-width="0.25" x="336.0" y="46.0" width="4" height="4" fill="#9DAEF0"/><rect stroke="black" stroke-width="0.25" x="340.0" y="46.0" width="4" height="4" fill="#4565E3"/><rect stroke="black" stroke-width="0.25" x="344.0" y="46.0" width="4" height="4" fill="#9DAEF0"/><rect stroke="black" stroke-width="0.25" x="332.0" y="50.0" width="4" height="4" fill="#4565E3"/><rect stroke="black" stroke-width="0.25" x="336.0" y="50.0" width="4" height="4" fill="#718AEA"/><rect stroke="black" stroke-width="0.25" x="340.0" y="50.0" width="4" height="4" fill="#4565E3"/><rect stroke="black" stroke-width="0.25" x="344.0" y="50.0" width="4" height="4" fill="#4565E3"/><rect stroke="black" stroke-width="0.25" x="332.0" y="54.0" width="4" height="4" fill="#4565E3"/><rect stroke="black" stroke-width="0.25" x="336.0" y="54.0" width="4" height="4" fill="#9DAEF0"/><rect stroke="black" stroke-width="0.25" x="340.0" y="54.0" width="4" height="4" fill="#9DAEF0"/><rect stroke="black" stroke-width="0.25" x="344.0" y="54.0" width="4" height="4" fill="#4565E3"/><rect stroke="black" stroke-width="0.25" x="332.0" y="58.0" width="4" height="4" fill="#718AEA"/><rect stroke="black" stroke-width="0.25" x="336.0" y="58.0" width="4" height="4" fill="#9DAEF0"/><rect stroke="black" stroke-width="0.25" x="340.0" y="58.0" width="4" height="4" fill="#4565E3"/><rect stroke="black" stroke-width="0.25" x="344.0" y="58.0" width="4" height="4" fill="#718AEA"/><rect stroke="black" stroke-width="0.25" x="332.0" y="62.0" width="4" height="4" fill="#9DAEF0"/><rect stroke="black" stroke-width="0.25" x="336.0" y="62.0" width="4" height="4" fill="#4565E3"/><rect stroke="black" stroke-width="0.25" x="340.0" y="62.0" width="4" height="4" fill="#9DAEF0"/><rect stroke="black" stroke-width="0.25" x="344.0" y="62.0" width="4" height="4" fill="#4565E3"/><rect stroke="black" stroke-width="0.25" x="332.0" y="66.0" width="4" height="4" fill="#718AEA"/><rect stroke="black" stroke-width="0.25" x="336.0" y="66.0" width="4" height="4" fill="#718AEA"/><rect stroke="black" stroke-width="0.25" x="340.0" y="66.0" width="4" height="4" fill="#9DAEF0"/><rect stroke="black" stroke-width="0.25" x="344.0" y="66.0" width="4" height="4" fill="#4565E3"/><rect stroke="black" stroke-width="0.25" x="332.0" y="70.0" width="4" height="4" fill="#718AEA"/><rect stroke="black" stroke-width="0.25" x="336.0" y="70.0" width="4" height="4" fill="#4565E3"/><rect stroke="black" stroke-width="0.25" x="340.0" y="70.0" width="4" height="4" fill="#9DAEF0"/><rect stroke="black" stroke-width="0.25" x="344.0" y="70.0" width="4" height="4" fill="#4565E3"/></g><g><rect stroke="black" stroke-width="0.25" x="324.0" y="26.0" width="4" height="4" fill="#888888"/><rect stroke="black" stroke-width="0.25" x="324.0" y="30.0" width="4" height="4" fill="#777777"/><rect stroke="black" stroke-width="0.25" x="324.0" y="34.0" width="4" height="4" fill="#555555"/><rect stroke="black" stroke-width="0.25" x="324.0" y="38.0" width="4" height="4" fill="#888888"/><rect stroke="black" stroke-width="0.25" x="324.0" y="42.0" width="4" height="4" fill="#555555"/><rect stroke="black" stroke-width="0.25" x="324.0" y="46.0" width="4" height="4" fill="#666666"/><rect stroke="black" stroke-width="0.25" x="324.0" y="50.0" width="4" height="4" fill="#777777"/><rect stroke="black" stroke-width="0.25" x="324.0" y="54.0" width="4" height="4" fill="#555555"/><rect stroke="black" stroke-width="0.25" x="324.0" y="58.0" width="4" height="4" fill="#777777"/><rect stroke="black" stroke-width="0.25" x="324.0" y="62.0" width="4" height="4" fill="#888888"/><rect stroke="black" stroke-width="0.25" x="324.0" y="66.0" width="4" height="4" fill="#666666"/><rect stroke="black" stroke-width="0.25" x="324.0" y="70.0" width="4" height="4" fill="#777777"/></g><g transform="translate(316.0, 50) rotate(-90.0)"><text text-anchor="middle" font-size="9" fill="black" x="0" y="3.0">SDF</text></g><g transform="translate(356.0, 50) rotate(-90.0)"><text text-anchor="middle" font-size="9" fill="black" x="0" y="3.0">SH Coeff.</text></g><g><line stroke="black" stroke-width="1" x1="336.0" y1="78" x2="336.0" y2="89.0" stroke-linecap="round"/><line stroke="black" stroke-width="1" x1="336.0" y1="89.0" x2="339.0" y2="86.0" stroke-linecap="round"/><line stroke="black" stroke-width="1" x1="336.0" y1="89.0" x2="333.0" y2="86.0" stroke-linecap="round"/></g><g transform="translate(61.0, 130) rotate(0.0)"><text text-anchor="middle" font-size="9" fill="black" x="0" y="3.0">Bit-Packed Active Grid</text></g><g transform="translate(221.0, 130) rotate(0.0)"><text text-anchor="middle" font-size="9" fill="black" x="0" y="3.0">Sparse Voxels and Vertices</text></g><g transform="translate(451.0, 130) rotate(0.0)"><text text-anchor="middle" font-size="9" fill="black" x="0" y="3.0">Extracted Mesh Shells</text></g></svg>